<svg width="80" height="80" xmlns="http://www.w3.org/2000/svg" xmlns:xlink="http://www.w3.org/1999/xlink" xml:space="preserve" overflow="hidden"><g transform="translate(-551 -124)"><path d="M551 124 631 124 631 204 551 204Z" fill="#DD344C" fill-rule="evenodd"/><path d="M567.964 159.808 580.869 159.808 580.869 157.825 567.964 157.825 567.964 159.808ZM612.375 174.231 613.779 175.633 606.407 182.994C606.213 183.187 605.959 183.284 605.706 183.284 605.451 183.284 605.197 183.187 605.004 182.994L601.295 179.291 602.699 177.89 605.706 180.891 612.375 174.231ZM616.944 179.694C616.718 181.557 615.959 183.291 614.747 184.709 613.886 185.716 612.799 186.548 611.604 187.115 610.001 187.876 608.22 188.164 606.446 187.948 604.721 187.738 603.095 187.058 601.74 185.982 599.137 183.916 597.822 180.711 598.222 177.409 598.601 174.288 600.492 171.566 603.28 170.127 604.617 169.438 606.08 169.084 607.57 169.084 607.952 169.084 608.337 169.108 608.721 169.155 611.834 169.534 614.55 171.436 615.981 174.243 616.84 175.926 617.172 177.811 616.944 179.694L616.944 179.694ZM617.75 173.344C616.018 169.948 612.732 167.646 608.962 167.187 606.681 166.908 604.403 167.317 602.369 168.366 598.996 170.106 596.708 173.398 596.251 177.171 595.768 181.161 597.358 185.036 600.505 187.535 602.146 188.837 604.117 189.661 606.205 189.916 606.667 189.972 607.13 190 607.592 190 609.271 190 610.93 189.629 612.456 188.906 613.902 188.22 615.218 187.213 616.257 185.995 617.723 184.28 618.643 182.184 618.916 179.932 619.192 177.657 618.788 175.379 617.75 173.344L617.75 173.344ZM577.891 165.755 581.862 165.755 581.862 163.773 577.891 163.773 577.891 165.755ZM567.964 165.755 575.905 165.755 575.905 163.773 567.964 163.773 567.964 165.755ZM567.106 139.982 611.508 139.982C612.677 139.982 613.628 141.139 613.628 142.561L613.628 149.895 610.65 149.895 610.65 144.939C610.65 144.392 610.206 143.948 609.657 143.948L586.825 143.948C586.276 143.948 585.832 144.392 585.832 144.939L585.832 149.895 564.985 149.895 564.985 142.561C564.985 141.163 565.957 139.982 567.106 139.982L567.106 139.982ZM598.256 149.608C600.561 149.608 602.437 151.461 602.437 153.739 602.437 155.241 601.608 156.623 600.273 157.347 599.007 158.034 597.48 158.025 596.23 157.348 594.901 156.622 594.076 155.24 594.076 153.739 594.076 151.461 595.95 149.608 598.256 149.608L598.256 149.608ZM564.985 171.108 564.985 151.878 585.832 151.878 585.832 168.729C585.832 169.277 586.276 169.721 586.825 169.721L597.203 169.721 597.203 167.738 588.912 167.738C588.998 163.771 591.636 160.344 595.434 159.25 597.189 160.07 599.285 160.077 601.067 159.249 603.229 159.873 605.121 161.318 606.293 163.254L607.992 162.227C606.789 160.243 604.963 158.695 602.846 157.795 603.838 156.694 604.422 155.263 604.422 153.739 604.422 150.368 601.655 147.625 598.256 147.625 594.856 147.625 592.09 150.368 592.09 153.739 592.09 155.257 592.668 156.683 593.654 157.784 591 158.9 588.928 160.992 587.818 163.573L587.818 145.93 608.665 145.93 608.665 161.79 610.65 161.79 610.65 151.878 613.628 151.878 613.629 166.747 615.615 166.747 615.614 142.561C615.614 140.046 613.772 138 611.508 138L567.106 138C564.841 138 563 140.046 563 142.561L563 171.108C563 173.623 564.841 175.668 567.106 175.668L593.774 175.668 593.774 173.686 567.106 173.686C565.957 173.686 564.985 172.506 564.985 171.108L564.985 171.108Z" fill="#FFFFFF" fill-rule="evenodd"/></g></svg>